<svg width="683" height="683" viewBox="0 0 683 683" fill="none" xmlns="http://www.w3.org/2000/svg">
<rect width="683" height="683" rx="62" fill="white"/>
<path d="M332.267 132.388C338.328 127.853 346.658 127.873 352.698 132.435L546.246 278.63C550.5 281.843 553 286.865 553 292.196V396.732C553 404.464 546.732 410.732 539 410.732H358.5C357.892 410.732 357.292 410.764 356.7 410.827C372.7 379.396 401.405 355.701 436.231 346.324L456 341.002L436.231 335.679C392.869 324.004 358.997 290.132 347.322 246.77L342 227.002L336.678 246.77C325.003 290.132 291.131 324.004 247.769 335.679L228 341.002L247.769 346.324C291.131 357.999 325.003 391.871 336.678 435.233L341.5 453.144V548.005C341.5 553.774 334.914 557.067 330.3 553.606L138.3 409.606C136.833 408.506 135.631 407.053 134.372 405.721C131.662 402.855 130 398.988 130 394.732V292.244C130 286.886 132.526 281.842 136.815 278.632L332.267 132.388Z" fill="#2C2C2C"/>
</svg>
